<svg height="511pt" viewBox="-58 0 511 511.99999" width="511pt" xmlns="http://www.w3.org/2000/svg"><path d="m85.492188 510.578125c-9.859376-4-14.609376-15.238281-10.605469-25.101563l16.472656-40.59375 35.710937 14.496094-16.476562 40.59375c-4 9.859375-15.238281 14.609375-25.101562 10.605469zm0 0" fill="#2d5b72"/><path d="m317.382812 510.578125c9.859376-4 14.609376-15.238281 10.605469-25.101563l-16.472656-40.59375-35.710937 14.496094 16.476562 40.59375c4 9.859375 15.238281 14.609375 25.101562 10.605469zm0 0" fill="#2d5b72"/><path d="m388.75 307.878906c0 103.449219-83.863281 187.3125-187.3125 187.3125s-187.3125-83.863281-187.3125-187.3125c0-103.449218 83.863281-187.3125 187.3125-187.3125s187.3125 83.863282 187.3125 187.3125zm0 0" fill="#5b7fa0"/><path d="m388.75 307.878906c0 103.445313-83.859375 187.316406-187.316406 187.316406-8.464844 0-16.796875-.558593-24.957032-1.65625 91.65625-12.199218 162.359376-90.675781 162.359376-185.660156 0-94.980468-70.707032-173.460937-162.359376-185.660156 8.160157-1.09375 16.492188-1.652344 24.957032-1.652344 103.457031 0 187.316406 83.867188 187.316406 187.3125zm0 0" fill="#3f6b86"/><path d="m246 31.089844c-1.691406 0-3.390625-.558594-4.800781-1.707032-11.375-9.265624-25.125-14.160156-39.761719-14.160156s-28.386719 4.894532-39.761719 14.160156c-3.257812 2.652344-8.050781 2.164063-10.707031-1.097656-2.65625-3.261718-2.164062-8.054687 1.09375-10.710937 13.921875-11.332031 31.457031-17.574219 49.375-17.574219s35.453125 6.242188 49.371094 17.574219c3.261718 2.65625 3.753906 7.449219 1.097656 10.710937-1.503906 1.847656-3.695312 2.804688-5.90625 2.804688zm0 0" fill="#77dfff"/><path d="m230.878906 53.953125c-1.6875 0-3.390625-.558594-4.800781-1.710937-7.050781-5.738282-15.570313-8.773438-24.640625-8.773438s-17.589844 3.035156-24.640625 8.773438c-3.257813 2.65625-8.054687 2.164062-10.707031-1.097657-2.65625-3.257812-2.164063-8.050781 1.09375-10.707031 9.65625-7.863281 21.820312-12.191406 34.253906-12.191406s24.597656 4.328125 34.253906 12.191406c3.257813 2.65625 3.75 7.449219 1.09375 10.707031-1.503906 1.847657-3.695312 2.808594-5.90625 2.808594zm0 0" fill="#77dfff"/><path d="m216.394531 75.285156c-1.6875 0-3.386719-.558594-4.800781-1.710937-2.90625-2.363281-6.417969-3.613281-10.15625-3.613281s-7.25 1.25-10.160156 3.613281c-3.257813 2.65625-8.050782 2.167969-10.707032-1.09375-2.652343-3.261719-2.164062-8.054688 1.097657-10.707031 5.570312-4.539063 12.59375-7.039063 19.769531-7.039063s14.195312 2.5 19.765625 7.039063c3.261719 2.652343 3.753906 7.445312 1.097656 10.707031-1.503906 1.847656-3.695312 2.804687-5.90625 2.804687zm0 0" fill="#77dfff"/><path d="m201.496094 98.847656c-.011719 0-.023438 0-.035156 0h-.113282c-4.207031-.019531-7.597656-3.441406-7.582031-7.644531.019531-4.191406 3.425781-7.582031 7.613281-7.582031h.03125.117188c4.203125.019531 7.597656 3.441406 7.578125 7.644531-.015625 4.195313-3.421875 7.582031-7.609375 7.582031zm0 0" fill="#77dfff"/><g fill="#c8e7e5"><path d="m42.398438 160.058594c-1.953126 0-3.90625-.746094-5.394532-2.242188l-11.898437-11.957031c-2.964844-2.980469-2.953125-7.800781.027343-10.765625 2.980469-2.964844 7.800782-2.953125 10.765626.027344l11.898437 11.957031c2.964844 2.980469 2.953125 7.800781-.027344 10.765625-1.488281 1.476562-3.429687 2.214844-5.371093 2.214844zm0 0"/><path d="m22.160156 189.070312c-.65625 0-1.328125-.085937-1.992187-.265624l-14.046875-3.808594c-4.054688-1.101563-6.453125-5.28125-5.355469-9.335938 1.101563-4.058594 5.285156-6.457031 9.339844-5.355468l14.042969 3.804687c4.054687 1.101563 6.453124 5.28125 5.355468 9.339844-.917968 3.390625-3.988281 5.621093-7.34375 5.621093zm0 0"/><path d="m71.519531 139.988281c-3.367187 0-6.449219-2.253906-7.351562-5.664062l-3.726563-14.066407c-1.074218-4.066406 1.347656-8.230468 5.410156-9.308593 4.066407-1.078125 8.230469 1.347656 9.308594 5.410156l3.722656 14.066406c1.078126 4.0625-1.34375 8.230469-5.40625 9.304688-.65625.175781-1.308593.257812-1.957031.257812zm0 0"/><path d="m354.171875 160.058594c-1.945313 0-3.886719-.738282-5.371094-2.214844-2.980469-2.964844-2.992187-7.785156-.027343-10.765625l11.898437-11.957031c2.960937-2.980469 7.78125-2.992188 10.765625-.027344 2.980469 2.964844 2.992188 7.785156.027344 10.765625l-11.898438 11.957031c-1.488281 1.496094-3.441406 2.242188-5.394531 2.242188zm0 0"/><path d="m374.40625 189.070312c-3.351562 0-6.421875-2.230468-7.339844-5.621093-1.101562-4.058594 1.296875-8.238281 5.355469-9.339844l14.042969-3.804687c4.054687-1.105469 8.238281 1.296874 9.339844 5.355468 1.097656 4.054688-1.296876 8.238282-5.355469 9.335938l-14.046875 3.808594c-.667969.179687-1.335938.265624-1.996094.265624zm0 0"/><path d="m325.046875 139.988281c-.644531 0-1.296875-.082031-1.953125-.257812-4.0625-1.074219-6.484375-5.242188-5.40625-9.304688l3.722656-14.066406c1.078125-4.0625 5.242188-6.488281 9.308594-5.410156 4.0625 1.078125 6.484375 5.242187 5.40625 9.308593l-3.722656 14.066407c-.902344 3.410156-3.984375 5.664062-7.355469 5.664062zm0 0"/><path d="m185.109375 262.484375-23.988281 19.515625h-20.347656c-5.605469 0-10.148438 4.542969-10.148438 10.148438v31.460937c0 5.605469 4.542969 10.148437 10.148438 10.148437h20.347656l23.988281 19.519532c6.632813 5.394531 16.554687.675781 16.554687-7.875v-75.046875c0-8.546875-9.921874-13.265625-16.554687-7.871094zm0 0"/><path d="m231.125 336.738281c-1.773438 0-3.554688-.617187-4.996094-1.871093-3.167968-2.757813-3.503906-7.566407-.746094-10.738282 3.925782-4.507812 6.085938-10.28125 6.085938-16.25 0-5.972656-2.160156-11.742187-6.085938-16.25-2.757812-3.171875-2.421874-7.980468.746094-10.742187 3.171875-2.757813 7.980469-2.425781 10.738282.746093 6.335937 7.28125 9.824218 16.601563 9.824218 26.246094 0 9.644532-3.488281 18.964844-9.824218 26.242188-1.503907 1.730468-3.617188 2.617187-5.742188 2.617187zm0 0"/><path d="m250.40625 357.777344c-1.773438 0-3.550781-.617188-4.992188-1.871094-3.171874-2.757812-3.507812-7.566406-.746093-10.738281 9-10.34375 13.957031-23.589844 13.957031-37.289063 0-13.699218-4.957031-26.945312-13.957031-37.289062-2.761719-3.171875-2.425781-7.980469.746093-10.738282 3.167969-2.757812 7.976563-2.425781 10.738282.746094 11.410156 13.117188 17.695312 29.90625 17.695312 47.28125s-6.285156 34.167969-17.695312 47.28125c-1.507813 1.730469-3.621094 2.617188-5.746094 2.617188zm0 0"/></g></svg>