<svg height="511pt" viewBox="0 -33 511.99957 511" width="511pt" xmlns="http://www.w3.org/2000/svg"><path d="m38.46875 352.539062h111.09375v32.875h-111.09375zm0 0" fill="#acc6c4"/><path d="m38.46875 352.539062h30.84375v32.875h-30.84375zm0 0" fill="#9cb4b2"/><path d="m109.117188 352.539062h40.445312v32.875h-40.445312c-1.617188-5.195312-2.492188-10.714843-2.492188-16.433593s.875-11.238281 2.492188-16.441407zm0 0" fill="#9cb4b2"/><path d="m263.800781 290.191406-18.113281 18.113282-34.789062 34.777343-25.671876 25.671875-23.242187-23.242187 78.5625-78.558594zm0 0" fill="#acc6c4"/><path d="m210.898438 343.082031-25.671876 25.671875-23.242187-23.242187 25.601563-25.597657c9.910156 5.179688 18.070312 13.289063 23.3125 23.167969zm0 0" fill="#9cb4b2"/><path d="m263.800781 290.191406-18.113281 18.113282-34.160156-12.332032 29.019531-29.019531zm0 0" fill="#9cb4b2"/><path d="m56.949219 312.109375v113.734375c0 10.851562-8.796875 19.652344-19.652344 19.652344h-26.996094c-5.6875 0-10.300781-4.613282-10.300781-10.300782v-132.4375c0-5.691406 4.613281-10.304687 10.300781-10.304687h26.996094c10.855469.003906 19.652344 8.800781 19.652344 19.65625zm0 0" fill="#ffa438"/><path d="m22.945312 292.457031v153.039063h-12.644531c-5.6875 0-10.300781-4.613282-10.300781-10.300782v-132.4375c0-5.691406 4.613281-10.304687 10.300781-10.304687h12.644531zm0 0" fill="#c8e7e5"/><path d="m204.984375 368.980469c0 23.746093-19.25 43-43 43-23.746094 0-43-19.253907-43-43 0-23.75 19.253906-43 43-43 23.75 0 43 19.25 43 43zm0 0" fill="#5b7fa0"/><path d="m175.785156 368.980469c0 7.621093-6.179687 13.796875-13.800781 13.796875s-13.796875-6.175782-13.796875-13.796875c0-7.621094 6.175781-13.800781 13.796875-13.800781s13.800781 6.179687 13.800781 13.800781zm0 0" fill="#ffa438"/><path d="m421.253906 264.429688 47.703125 17.203124-19.3125 53.546876-47.703125-17.207032zm0 0" fill="#3f6b86"/><path d="m469.394531 365.027344-23.523437-14.082032c-4.246094-2.539062-6.097656-7.734374-4.421875-12.390624l23.363281-64.769532c1.679688-4.65625 6.421875-7.472656 11.3125-6.71875l27.097656 4.179688c6.4375.992187 10.367188 7.613281 8.15625 13.738281l-26.933594 74.675781c-2.207031 6.128906-9.460937 8.714844-15.050781 5.367188zm0 0" fill="#5b7fa0"/><path d="m451.570312 219.792969-44.234374 122.664062c-1.949219 5.378907-7.871094 8.167969-13.25 6.222657l-251.550782-90.726563-14.535156-5.246094-9.582031-3.449219c-15.503907-5.59375-23.539063-22.695312-17.945313-38.1875l37.632813-104.339843zm0 0" fill="#c8e7e5"/><path d="m451.570312 219.796875-10.550781 29.253906-142.871093-51.53125-27.03125 18.84375c-6.042969 4.222657-13.804688 5.242188-20.734376 2.742188l-135.222656-48.773438 22.941406-63.597656zm0 0" fill="#acc6c4"/><path d="m170.484375 180.019531-27.949219 77.933594-14.535156-5.246094 27.949219-77.929687c1.441406-4.007813 5.871093-6.089844 9.890625-4.648438 4.007812 1.453125 6.085937 5.882813 4.644531 9.890625zm0 0" fill="#acc6c4"/><path d="m498.253906 200.390625-348.707031-125.773437c-5.375-1.9375-11.308594.847656-13.246094 6.222656l-23.46875 64.414062c-1.960937 5.382813.820313 11.335938 6.210938 13.28125l135.546875 48.886719c3.160156 1.140625 6.675781.675781 9.429687-1.246094l32.292969-22.515625 161.410156 58.214844c17.871094 6.449219 37.585938-2.8125 44.03125-20.6875l2.722656-7.550781c1.9375-5.378907-.847656-11.308594-6.222656-13.246094zm0 0" fill="#3f6b86"/><path d="m169.546875 246.738281c-.878906 0-1.773437-.148437-2.648437-.46875-4.007813-1.464843-6.070313-5.898437-4.609376-9.90625 1.464844-4.011719 5.917969-6.117187 9.925782-4.65625 4.007812 1.464844 6.089844 5.855469 4.625 9.863281l-.035156.089844c-1.144532 3.132813-4.105469 5.078125-7.257813 5.078125zm0 0" fill="#4dd399"/><path d="m177.101562 225.992188c-.882812 0-1.777343-.152344-2.652343-.46875-4.007813-1.464844-6.070313-5.902344-4.605469-9.910157 1.464844-4.007812 5.914062-6.117187 9.921875-4.652343 4.011719 1.464843 6.089844 5.855468 4.625 9.863281l-.03125.089843c-1.144531 3.132813-4.105469 5.078126-7.257813 5.078126zm0 0" fill="#f74242"/><g fill="#ffa438"><path d="m383.652344 284.410156-77.320313-27.886718c-5.351562-1.929688-8.125-7.832032-6.195312-13.1875l2.726562-7.550782c1.929688-5.351562 7.832031-8.125 13.183594-6.195312l77.320313 27.890625c5.351562 1.929687 8.125 7.832031 6.195312 13.183593l-2.722656 7.550782c-1.933594 5.351562-7.835938 8.125-13.1875 6.195312zm0 0"/><path d="m213.109375 125.960938c-.871094 0-1.753906-.144532-2.621094-.460938-4.011719-1.445312-6.09375-5.875-4.644531-9.886719l5.792969-16.0625c1.449219-4.015625 5.875-6.097656 9.890625-4.644531 4.011718 1.445312 6.09375 5.875 4.644531 9.886719l-5.792969 16.0625c-1.136718 3.148437-4.105468 5.105469-7.269531 5.105469zm0 0"/><path d="m233.46875 133.308594c-.867188 0-1.753906-.148438-2.621094-.464844-4.011718-1.445312-6.09375-5.875-4.644531-9.886719l5.792969-16.0625c1.449218-4.015625 5.875-6.097656 9.890625-4.648437 4.011719 1.449218 6.09375 5.875 4.644531 9.890625l-5.792969 16.0625c-1.132812 3.148437-4.101562 5.109375-7.269531 5.109375zm0 0"/><path d="m253.832031 140.652344c-.871093 0-1.757812-.148438-2.621093-.460938-4.015626-1.449218-6.097657-5.875-4.648438-9.890625l5.792969-16.0625c1.449219-4.015625 5.878906-6.089843 9.890625-4.648437 4.011718 1.449218 6.09375 5.875 4.644531 9.890625l-5.792969 16.0625c-1.132812 3.148437-4.101562 5.109375-7.265625 5.109375zm0 0"/></g><path d="m305.039062 45.582031c-2.628906 0-5.191406-1.34375-6.640624-3.765625-6.339844-10.617187-15.820313-18.460937-27.414063-22.679687-11.59375-4.222657-23.898437-4.308594-35.578125-.25-4.03125 1.394531-8.433594-.730469-9.835938-4.761719-1.398437-4.03125.734376-8.433594 4.765626-9.835938 14.859374-5.164062 31.175781-5.046874 45.933593.324219 14.757813 5.375 27.332031 15.769531 35.398438 29.28125 2.1875 3.664063.992187 8.40625-2.671875 10.59375-1.242188.738281-2.609375 1.09375-3.957032 1.09375zm0 0" fill="#77dfff"/><path d="m286.0625 59.636719c-2.628906 0-5.195312-1.34375-6.640625-3.765625-3.878906-6.492188-9.675781-11.289063-16.761719-13.867188-7.089844-2.582031-14.609375-2.632812-21.753906-.152344-4.027344 1.398438-8.429688-.730468-9.832031-4.761718-1.398438-4.03125.734375-8.433594 4.765625-9.835938 10.386718-3.605468 21.789062-3.523437 32.105468.226563 10.316407 3.757812 19.105469 11.023437 24.742188 20.464843 2.1875 3.664063.992188 8.40625-2.671875 10.597657-1.238281.738281-2.605469 1.09375-3.953125 1.09375zm0 0" fill="#77dfff"/><path d="m268.050781 72.640625c-2.628906 0-5.195312-1.34375-6.640625-3.765625-1.519531-2.539062-3.785156-4.414062-6.554687-5.425781-2.769531-1.007813-5.710938-1.027344-8.507813-.054688-4.027344 1.394531-8.433594-.734375-9.832031-4.765625-1.402344-4.03125.730469-8.433594 4.761719-9.835937 6.101562-2.117188 12.800781-2.070313 18.863281.136719 6.0625 2.207031 11.222656 6.476562 14.535156 12.019531 2.1875 3.664062.992188 8.410156-2.671875 10.597656-1.242187.742187-2.605468 1.09375-3.953125 1.09375zm0 0" fill="#77dfff"/><path d="m249.015625 87.320312c-.875 0-1.765625-.148437-2.636719-.46875l-.09375-.035156c-4.007812-1.464844-6.070312-5.898437-4.605468-9.90625 1.464843-4.007812 5.90625-6.066406 9.910156-4.605468 4.007812 1.464843 6.117187 5.917968 4.648437 9.925781-1.144531 3.136719-4.082031 5.089843-7.222656 5.089843zm0 0" fill="#77dfff"/></svg>