<?xml version="1.0" encoding="iso-8859-1"?>
<!-- Generator: Adobe Illustrator 21.0.0, SVG Export Plug-In . SVG Version: 6.00 Build 0)  -->
<svg xmlns="http://www.w3.org/2000/svg" xmlns:xlink="http://www.w3.org/1999/xlink" version="1.1" id="Capa_1" x="0px" y="0px" viewBox="0 0 512 512" style="enable-background:new 0 0 512 512;" xml:space="preserve" width="512" height="512">
<g>
	<path style="fill:#575F64;" d="M452,136v270c0,8.399-6.599,15-15,15H45c-8.401,0-15-6.601-15-15V136c0-8.401,6.599-15,15-15h392   C445.401,121,452,127.599,452,136z"/>
	<path style="fill:#32393F;" d="M452,136v270c0,8.399-6.599,15-15,15H242V121h195C445.401,121,452,127.599,452,136z"/>
	<rect x="60" y="151" style="fill:#7C8388;" width="362" height="240"/>
	<rect x="242" y="151" style="fill:#575F64;" width="180" height="240"/>
	<path style="fill:#575F64;" d="M467,391H15c-8.401,0-15,6.599-15,15v30c0,24.899,20.099,45,45,45h392c24.901,0,45-20.101,45-45v-30   C482,397.599,475.401,391,467,391z"/>
	<path style="fill:#32393F;" d="M482,406v30c0,24.899-20.099,45-45,45H242v-90h225C475.401,391,482,397.599,482,406z"/>
	<path style="fill:#FFDA2D;" d="M467,31H227c-24.901,0-45,20.099-45,45v120c0,24.899,20.099,45,45,45h15v45c0,6,3.6,11.4,9.3,13.799   c4.357,2.181,11.796,1.597,16.199-3.3L323.301,241H467c24.901,0,45-20.101,45-45V76C512,51.099,491.901,31,467,31z"/>
	<path style="fill:#FDBF00;" d="M512,76v120c0,24.899-20.099,45-45,45H323.301l-55.801,55.499c-4.433,4.929-11.876,5.463-16.199,3.3   C245.6,297.4,242,292,242,286V31h225C491.901,31,512,51.099,512,76z"/>
	<circle style="fill:#32393F;" cx="287" cy="136" r="15"/>
	<circle style="fill:#32393F;" cx="347" cy="136" r="15"/>
	<circle style="fill:#32393F;" cx="407" cy="136" r="15"/>
</g>















</svg>
