<svg height="512pt" viewBox="-4 0 511 512" width="512pt" xmlns="http://www.w3.org/2000/svg" xmlns:xlink="http://www.w3.org/1999/xlink"><linearGradient id="a"><stop offset="0" stop-color="#ff6e3a"/><stop offset=".1596" stop-color="#ff6440"/><stop offset=".4266" stop-color="#ff4b52"/><stop offset=".7662" stop-color="#ff216e"/><stop offset="1" stop-color="#ff0084"/></linearGradient><linearGradient id="b" gradientUnits="userSpaceOnUse" x1="221.313147651" x2="221.313147651" xlink:href="#a" y1="71.5056495486" y2="303.7361995312"/><linearGradient id="c" gradientUnits="userSpaceOnUse" x1="264.3625277174" x2="264.3625277174" xlink:href="#a" y1="71.5056495486" y2="303.7361995312"/><linearGradient id="d" gradientUnits="userSpaceOnUse" x1="307.4118073916" x2="307.4118073916" xlink:href="#a" y1="71.5056495486" y2="303.7361995312"/><linearGradient id="e" gradientUnits="userSpaceOnUse" x1="350.461187458" x2="350.461187458" xlink:href="#a" y1="71.5056495486" y2="303.7361995312"/><linearGradient id="f" gradientUnits="userSpaceOnUse" x1="393.5104671322" x2="393.5104671322" xlink:href="#a" y1="71.5056495486" y2="303.7361995312"/><linearGradient id="g" gradientUnits="userSpaceOnUse" x1="436.5598471986" x2="436.5598471986" xlink:href="#a" y1="71.5056495486" y2="303.7361995312"/><linearGradient id="h"><stop offset="0" stop-color="#45425a"/><stop offset="1" stop-color="#2d3251"/></linearGradient><linearGradient id="i" gradientUnits="userSpaceOnUse" x1="92.8459677444" x2="139.8386530346" xlink:href="#h" y1="429.1260573312" y2="507.2266712822"/><linearGradient id="j"><stop offset="0" stop-color="#ffd459"/><stop offset=".2296" stop-color="#ffd355"/><stop offset=".4362" stop-color="#ffcf4a"/><stop offset=".634" stop-color="#ffc838"/><stop offset=".825" stop-color="#ffbf1f"/><stop offset="1" stop-color="#ffb400"/></linearGradient><linearGradient id="k" gradientTransform="matrix(.709873 .709873 -.709873 .709873 1789.110962 -681.13669)" gradientUnits="userSpaceOnUse" x1="-457.0383" x2="-440.6357" xlink:href="#j" y1="2030.5619" y2="2030.5619"/><linearGradient id="l"><stop offset="0" stop-color="#e58200" stop-opacity="0"/><stop offset=".0396" stop-color="#e27f04" stop-opacity=".039216"/><stop offset=".4671" stop-color="#c15d2f" stop-opacity=".466667"/><stop offset=".8016" stop-color="#ad4949" stop-opacity=".8"/><stop offset="1" stop-color="#a64153"/></linearGradient><linearGradient id="m" gradientTransform="matrix(.709873 .709873 -.709873 .709873 1789.110962 -681.13669)" gradientUnits="userSpaceOnUse" x1="-430.3116" x2="-458.2046" xlink:href="#l" y1="2038.964" y2="2011.0709"/><linearGradient id="n" gradientTransform="matrix(.709873 .709873 -.709873 .709873 281.877531 -93.782538)" gradientUnits="userSpaceOnUse" x1="164.058" x2="203.637" xlink:href="#h" y1="473.6283" y2="473.6283"/><linearGradient id="o"><stop offset="0" stop-color="#2d3251" stop-opacity="0"/><stop offset="1" stop-color="#131830"/></linearGradient><linearGradient id="p" gradientTransform="matrix(.709873 .709873 -.709873 .709873 1789.110962 -681.13669)" gradientUnits="userSpaceOnUse" x1="-423.1206" x2="-469.2783" xlink:href="#o" y1="1929.2987" y2="1862.6266"/><linearGradient id="q" gradientTransform="matrix(.709873 .709873 -.709873 .709873 1789.110962 -681.13669)" gradientUnits="userSpaceOnUse" x1="-461.0535" x2="-434.4774" xlink:href="#j" y1="1875.0002" y2="1875.0002"/><linearGradient id="r" gradientTransform="matrix(.709873 .709873 -.709873 .709873 1789.110962 -681.13669)" gradientUnits="userSpaceOnUse" x1="-433.0547" x2="-473.0667" xlink:href="#l" y1="1882.7772" y2="1824.9823"/><radialGradient id="s" cx="172.6041480972" cy="185.7025965312" gradientUnits="userSpaceOnUse" r="179.0987812702"><stop offset="0" stop-color="#ecf7ff"/><stop offset=".3346" stop-color="#e9f5fe"/><stop offset=".5334" stop-color="#e1edfc"/><stop offset=".6966" stop-color="#d3e1f7"/><stop offset=".8405" stop-color="#bfcff1"/><stop offset=".9705" stop-color="#a5b8e9"/><stop offset="1" stop-color="#9eb2e7"/></radialGradient><linearGradient id="t" gradientTransform="matrix(.709873 .709873 -.709873 .709873 281.877531 -93.782538)" gradientUnits="userSpaceOnUse" x1="221.7208" x2="194.0308" y1="393.7807" y2="274.6152"><stop offset=".0029" stop-color="#c2e0ff" stop-opacity="0"/><stop offset=".0763" stop-color="#bfdcfd" stop-opacity=".07451"/><stop offset="1" stop-color="#9eb2e7"/></linearGradient><linearGradient id="u" gradientTransform="matrix(.709873 .709873 -.709873 .709873 281.877531 -93.782538)" gradientUnits="userSpaceOnUse" x1="197.3518" x2="197.3518" xlink:href="#h" y1="285.3406" y2="316.5784"/><linearGradient id="v" gradientUnits="userSpaceOnUse" x1="176.7995473476" x2="167.698693241" xlink:href="#o" y1="437.2495933708" y2="428.148638872"/><linearGradient id="w" gradientUnits="userSpaceOnUse" x1="137.4616669152" x2="158.310516658" xlink:href="#o" y1="424.7069934716" y2="410.5595238632"/><linearGradient id="x" gradientUnits="userSpaceOnUse" x1="380.6002309966" x2="437.9897333032" y1="228.6697390408" y2="286.0592413474"><stop offset="0" stop-color="#8be1e2"/><stop offset=".1426" stop-color="#7fe2de"/><stop offset=".4015" stop-color="#5fe3d3"/><stop offset=".7443" stop-color="#2be5c1"/><stop offset="1" stop-color="#00e7b2"/></linearGradient><path d="m221.3125 187.519531c-9.453125 0-17.117188-7.664062-17.117188-17.117187v-98.195313c0-9.453125 7.664063-17.117187 17.117188-17.117187s17.121094 7.664062 17.121094 17.117187v98.195313c-.003906 9.453125-7.667969 17.117187-17.121094 17.117187zm0 0" fill="url(#b)"/><path d="m264.363281 213.421875c-9.453125 0-17.121093-7.664063-17.121093-17.117187v-150c0-9.453126 7.664062-17.117188 17.121093-17.117188 9.453125 0 17.117188 7.664062 17.117188 17.117188v150c0 9.453124-7.664063 17.117187-17.117188 17.117187zm0 0" fill="url(#c)"/><path d="m307.410156 187.519531c-9.453125 0-17.117187-7.664062-17.117187-17.117187v-98.195313c0-9.453125 7.664062-17.117187 17.117187-17.117187 9.457032 0 17.121094 7.664062 17.121094 17.117187v98.195313c0 9.453125-7.664062 17.117187-17.121094 17.117187zm0 0" fill="url(#d)"/><path d="m350.460938 242.609375c-9.453126 0-17.117188-7.664063-17.117188-17.121094v-208.371093c0-9.453126 7.664062-17.117188 17.117188-17.117188 9.453124 0 17.117187 7.664062 17.117187 17.117188v208.375c0 9.453124-7.664063 17.117187-17.117187 17.117187zm0 0" fill="url(#e)"/><path d="m393.511719 213.421875c-9.457031 0-17.121094-7.664063-17.121094-17.117187v-150c0-9.453126 7.664063-17.117188 17.121094-17.117188 9.453125 0 17.117187 7.664062 17.117187 17.117188v150c0 9.453124-7.664062 17.117187-17.117187 17.117187zm0 0" fill="url(#f)"/><path d="m436.558594 187.519531c-9.453125 0-17.117188-7.664062-17.117188-17.117187v-98.195313c0-9.453125 7.664063-17.117187 17.117188-17.117187s17.121094 7.664062 17.121094 17.117187v98.195313c0 9.453125-7.664063 17.117187-17.121094 17.117187zm0 0" fill="url(#g)"/><path d="m40.628906 512c-10.273437 0-20.550781-3.910156-28.375-11.734375-7.578125-7.578125-11.753906-17.660156-11.753906-28.378906s4.175781-20.796875 11.753906-28.375l18.722656-18.722657c2.90625-2.90625 7.621094-2.90625 10.527344 0 2.910156 2.910157 2.910156 7.625 0 10.53125l-18.71875 18.722657c-4.769531 4.765625-7.394531 11.105469-7.394531 17.84375 0 6.742187 2.625 13.082031 7.394531 17.847656 9.839844 9.839844 25.851563 9.839844 35.691406 0l71.292969-71.289063c5.386719-5.386718 12.546875-8.355468 20.167969-8.355468 3.371094 0 6.652344.582031 9.730469 1.699218l22.949219-22.945312c2.90625-2.910156 7.621093-2.910156 10.527343 0 2.910157 2.90625 2.910157 7.621094 0 10.527344l-21.054687 21.058594 9.636718 9.640624c5.390626 5.386719 8.355469 12.546876 8.355469 20.167969 0 7.621094-2.964843 14.78125-8.355469 20.167969l-1.695312 1.699219c-5.386719 5.386719-12.550781 8.351562-20.167969 8.351562-7.621093 0-14.785156-2.964843-20.171875-8.351562-5.386718-5.390625-8.351562-12.550781-8.351562-20.171875 0-7.617188 2.964844-14.78125 8.351562-20.167969l6.164063-6.164063c-2.074219.648438-3.976563 1.792969-5.558594 3.375l-71.289063 71.289063c-7.824218 7.824219-18.101562 11.734375-28.378906 11.734375zm120.929688-81.042969-11.335938 11.335938c-5.316406 5.316406-5.316406 13.964843 0 19.277343 2.574219 2.578126 6 3.996094 9.640625 3.996094s7.0625-1.417968 9.636719-3.996094l1.699219-1.695312c2.574219-2.574219 3.992187-5.996094 3.992187-9.640625 0-3.640625-1.417968-7.0625-3.992187-9.636719zm0 0" fill="url(#i)"/><path d="m16.128906 456.207031-4.046875-4.046875c-9.878906-9.878906-9.878906-25.894531 0-35.773437l9.554688-9.558594 39.824219 39.820313-9.558594 9.558593c-9.878906 9.878907-25.894532 9.878907-35.773438 0zm0 0" fill="url(#k)"/><path d="m51.902344 456.207031 9.558594-9.558593-39.824219-39.820313-9.554688 9.558594c-.371093.367187-.722656.75-1.0625 1.132812v33.503907c.339844.386718.691407.765624 1.0625 1.136718l4.046875 4.046875c9.878906 9.878907 25.894532 9.878907 35.773438 0zm0 0" fill="url(#m)"/><path d="m33.226562 448.800781-13.742187-13.742187c-11.261719-11.261719-11.261719-29.523438 0-40.789063l78.007813-78.007812c11.265624-11.261719 29.527343-11.261719 40.792968 0l13.738282 13.742187c11.265624 11.265625 11.265624 29.527344 0 40.789063l-78.007813 78.007812c-11.261719 11.265625-29.523437 11.265625-40.789063 0zm0 0" fill="url(#n)"/><path d="m95.230469 330.554688v85.003906l65.242187-65.238282-42.503906-42.503906zm0 0" fill="url(#p)"/><path d="m133.417969 369.660156-34.792969-34.792968c-8.210938-8.207032-8.210938-21.515626 0-29.726563l29.601562-29.601563 64.523438 64.519532-29.605469 29.601562c-8.207031 8.210938-21.515625 8.210938-29.726562 0zm0 0" fill="url(#q)"/><path d="m108.625 295.15625v49.714844l24.792969 24.789062c8.210937 8.210938 21.519531 8.210938 29.726562 0l29.605469-29.601562-64.523438-64.523438-19.597656 19.601563zm0 0" fill="url(#r)"/><path d="m333.496094 251.613281c0 64.515625-52.300782 116.820313-116.820313 116.820313s-116.820312-52.304688-116.820312-116.820313c0-64.519531 52.300781-116.820312 116.820312-116.820312s116.820313 52.300781 116.820313 116.820312zm0 0" fill="url(#s)"/><path d="m311.574219 319.75c-.101563-.070312-.1875-.15625-.292969-.226562-27.578125-17.859376-58.558594-43.09375-88.988281-73.527344-30.433594-30.433594-55.667969-61.410156-73.53125-88.988282-.066407-.105468-.144531-.199218-.21875-.300781-5.066407 3.644531-9.914063 7.742188-14.472657 12.300781-4.128906 4.132813-7.878906 8.503907-11.261718 13.058594v139.089844c3.382812 4.558594 7.128906 8.925781 11.261718 13.058594 45.621094 45.621094 119.589844 45.621094 165.210938 0 4.554688-4.554688 8.648438-9.398438 12.292969-14.464844zm0 0" fill="url(#t)"/><path d="m289.242188 346.867188c3.085937 1.953124 7.070312 1.585937 9.820312-.8125 2.128906-1.855469 4.207031-3.796876 6.234375-5.824219 2.75-2.75 5.34375-5.597657 7.78125-8.527344 3.160156-3.800781 2.351563-9.492187-1.796875-12.179687-27.578125-17.863282-58.558594-43.097657-88.988281-73.527344-30.433594-30.433594-55.667969-61.414063-73.527344-88.988282-2.6875-4.148437-8.378906-4.960937-12.179687-1.800781-2.933594 2.441407-5.78125 5.03125-8.53125 7.785157-2.023438 2.023437-3.964844 4.105468-5.820313 6.230468-2.398437 2.75-2.765625 6.738282-.8125 9.824219 17.957031 28.375 43.96875 60.59375 75.597656 92.222656 31.625 31.628907 63.847657 57.636719 92.222657 75.597657zm0 0" fill="url(#u)"/><path d="m181.730469 430.066406-9.640625-9.640625-10.53125 10.53125 9.640625 9.640625c1.910156 1.90625 3.179687 4.285156 3.710937 6.871094l11.40625-11.410156c-1.242187-2.160156-2.773437-4.179688-4.585937-5.992188zm0 0" fill="url(#v)"/><path d="m129.769531 418.445312-18.40625 18.402344 10.53125 10.53125 18.402344-18.402344c1.582031-1.582031 3.484375-2.730468 5.558594-3.375l13.8125-13.816406c-3.078125-1.113281-6.359375-1.695312-9.730469-1.695312-7.621094 0-14.78125 2.96875-20.167969 8.355468zm0 0" fill="url(#w)"/><path d="m350.179688 344.785156c7.742187 7.742188 20.292968 7.742188 28.035156 0l121.15625-121.152344c6.273437-6.277343 6.273437-16.453124 0-22.730468l-15.082032-15.078125c-6.277343-6.277344-16.453124-6.277344-22.726562 0l-86 86c-6.277344 6.273437-16.453125 6.273437-22.730469 0l-33.945312-33.945313c-6.277344-6.277344-16.453125-6.277344-22.726563 0l-15.082031 15.078125c-6.277344 6.277344-6.277344 16.453125 0 22.730469zm0 0" fill="url(#x)"/></svg>