<?xml version="1.0" encoding="iso-8859-1"?>
<!-- Generator: Adobe Illustrator 19.0.0, SVG Export Plug-In . SVG Version: 6.00 Build 0)  -->
<svg version="1.1" id="Capa_1" xmlns="http://www.w3.org/2000/svg" xmlns:xlink="http://www.w3.org/1999/xlink" x="0px" y="0px"
	 viewBox="0 0 512 512" style="enable-background:new 0 0 512 512;" xml:space="preserve">
<polygon style="fill:#366DB6;" points="102.4,8.533 102.4,162.133 102.4,213.333 128,187.733 153.6,162.133 213.333,162.133 
	298.667,162.133 409.6,162.133 409.6,8.533 "/>
<g>
	<path style="fill:#25AE88;" d="M68.267,93.867H8.533C3.823,93.867,0,90.052,0,85.333C0,80.614,3.823,76.8,8.533,76.8h59.733
		c4.71,0,8.533,3.814,8.533,8.533C76.8,90.052,72.977,93.867,68.267,93.867z"/>
	<path style="fill:#25AE88;" d="M68.267,93.867c-2.185,0-4.369-0.836-6.033-2.5l-25.6-25.6c-3.337-3.337-3.337-8.73,0-12.066
		c3.328-3.337,8.738-3.337,12.066,0l25.6,25.6c3.337,3.337,3.337,8.73,0,12.066C72.636,93.03,70.451,93.867,68.267,93.867z"/>
	<path style="fill:#25AE88;" d="M42.667,119.467c-2.185,0-4.369-0.836-6.033-2.5c-3.337-3.337-3.337-8.73,0-12.066l25.6-25.6
		c3.328-3.337,8.738-3.337,12.066,0c3.337,3.337,3.337,8.73,0,12.066l-25.6,25.6C47.036,118.63,44.851,119.467,42.667,119.467z"/>
</g>
<polygon style="fill:#EBBA16;" points="409.6,298.667 409.6,452.267 409.6,503.467 384,477.867 358.4,452.267 298.667,452.267 
	213.333,452.267 102.4,452.267 102.4,298.667 "/>
<g>
	<path style="fill:#25AE88;" d="M68.267,384H8.533C3.823,384,0,380.186,0,375.467V85.333C0,80.614,3.823,76.8,8.533,76.8
		s8.533,3.814,8.533,8.533v281.6h51.2c4.71,0,8.533,3.814,8.533,8.533C76.8,380.186,72.977,384,68.267,384z"/>
	<path style="fill:#25AE88;" d="M503.467,384h-59.733c-4.71,0-8.533-3.814-8.533-8.533c0-4.719,3.823-8.533,8.533-8.533h59.733
		c4.71,0,8.533,3.814,8.533,8.533C512,380.186,508.177,384,503.467,384z"/>
	<path style="fill:#25AE88;" d="M469.333,409.6c-2.185,0-4.369-0.836-6.033-2.5l-25.6-25.6c-3.337-3.337-3.337-8.73,0-12.066
		c3.328-3.337,8.738-3.337,12.066,0l25.6,25.6c3.337,3.337,3.337,8.73,0,12.066C473.702,408.764,471.518,409.6,469.333,409.6z"/>
	<path style="fill:#25AE88;" d="M443.733,384c-2.185,0-4.369-0.836-6.033-2.5c-3.337-3.337-3.337-8.73,0-12.066l25.6-25.6
		c3.328-3.337,8.738-3.337,12.066,0c3.337,3.337,3.337,8.73,0,12.066l-25.6,25.6C448.102,383.164,445.918,384,443.733,384z"/>
	<path style="fill:#25AE88;" d="M503.467,384c-4.71,0-8.533-3.814-8.533-8.533v-281.6h-51.2c-4.71,0-8.533-3.814-8.533-8.533
		c0-4.719,3.823-8.533,8.533-8.533h59.733c4.71,0,8.533,3.814,8.533,8.533v290.133C512,380.186,508.177,384,503.467,384z"/>
</g>
<g>
	<path style="fill:#FFFFFF;" d="M366.933,59.733h-153.6c-4.71,0-8.533-3.814-8.533-8.533s3.823-8.533,8.533-8.533h153.6
		c4.71,0,8.533,3.814,8.533,8.533S371.644,59.733,366.933,59.733z"/>
	<path style="fill:#FFFFFF;" d="M178.944,59.733h-33.877c-4.71,0-8.533-3.814-8.533-8.533s3.823-8.533,8.533-8.533h33.877
		c4.71,0,8.533,3.814,8.533,8.533S183.654,59.733,178.944,59.733z"/>
	<path style="fill:#FFFFFF;" d="M298.667,93.867h-153.6c-4.71,0-8.533-3.814-8.533-8.533c0-4.719,3.823-8.533,8.533-8.533h153.6
		c4.71,0,8.533,3.814,8.533,8.533C307.2,90.052,303.377,93.867,298.667,93.867z"/>
	<path style="fill:#FFFFFF;" d="M366.933,93.867h-33.877c-4.71,0-8.533-3.814-8.533-8.533c0-4.719,3.823-8.533,8.533-8.533h33.877
		c4.71,0,8.533,3.814,8.533,8.533C375.467,90.052,371.644,93.867,366.933,93.867z"/>
	<path style="fill:#FFFFFF;" d="M366.933,128h-153.6c-4.71,0-8.533-3.814-8.533-8.533c0-4.719,3.823-8.533,8.533-8.533h153.6
		c4.71,0,8.533,3.814,8.533,8.533C375.467,124.186,371.644,128,366.933,128z"/>
	<path style="fill:#FFFFFF;" d="M178.944,128h-33.877c-4.71,0-8.533-3.814-8.533-8.533c0-4.719,3.823-8.533,8.533-8.533h33.877
		c4.71,0,8.533,3.814,8.533,8.533C187.477,124.186,183.654,128,178.944,128z"/>
</g>
<g>
	<circle style="fill:#DC691D;" cx="162.133" cy="375.467" r="25.6"/>
	<circle style="fill:#DC691D;" cx="349.867" cy="375.467" r="25.6"/>
	<circle style="fill:#DC691D;" cx="256" cy="375.467" r="25.6"/>
</g>
<g>
</g>
<g>
</g>
<g>
</g>
<g>
</g>
<g>
</g>
<g>
</g>
<g>
</g>
<g>
</g>
<g>
</g>
<g>
</g>
<g>
</g>
<g>
</g>
<g>
</g>
<g>
</g>
<g>
</g>
</svg>
